<?xml version="1.0" encoding="UTF-8" ?>
<!DOCTYPE svg PUBLIC "-//W3C//DTD SVG 1.1//EN" "http://www.w3.org/Graphics/SVG/1.1/DTD/svg11.dtd">
<svg width="298pt" height="80pt" viewBox="0 0 298 80" version="1.1" xmlns="http://www.w3.org/2000/svg">
<g id="#ffffffff">
<path fill="#ffffff" opacity="1.00" d=" M 101.67 16.52 C 104.01 16.55 106.35 16.58 108.69 16.66 C 108.27 18.03 107.84 19.41 107.42 20.78 C 105.37 20.80 103.32 20.81 101.28 20.84 C 101.38 19.76 101.57 17.60 101.67 16.52 Z" />
<path fill="#ffffff" opacity="1.00" d=" M 39.45 25.68 C 40.76 25.68 42.06 25.68 43.36 25.70 C 43.33 26.83 43.30 27.95 43.27 29.08 C 42.73 29.24 41.66 29.55 41.13 29.70 C 40.14 28.56 39.58 27.19 39.45 25.68 Z" />
<path fill="#ffffff" opacity="1.00" d=" M 227.19 52.51 C 228.85 51.95 229.48 54.38 228.60 55.48 C 227.57 55.92 226.53 55.93 225.50 55.49 C 224.86 54.15 226.00 52.95 227.19 52.51 Z" />
</g>
<g id="#017ec6ff">
<path fill="#017ec6" opacity="1.00" d=" M 9.76 16.06 C 10.24 11.89 13.41 7.60 17.89 7.48 C 24.94 7.26 32.00 7.51 39.06 7.38 C 41.87 7.45 44.96 7.05 47.47 8.61 C 48.98 9.59 49.31 11.49 49.99 13.03 C 51.48 10.85 53.14 8.36 55.98 7.95 C 58.83 7.48 62.45 7.03 64.60 9.43 C 66.42 11.07 66.55 13.71 66.21 15.97 C 65.11 23.81 63.76 31.61 62.61 39.45 C 60.90 41.99 59.11 44.65 55.99 45.54 C 53.15 44.83 51.00 42.95 49.55 40.46 C 48.10 40.52 46.64 40.58 45.19 40.66 C 44.28 42.23 43.00 43.52 41.53 44.57 C 42.11 40.92 42.09 37.09 43.40 33.60 C 45.54 31.13 49.03 31.64 51.95 31.62 C 53.71 29.83 55.40 27.37 54.25 24.76 C 52.56 21.26 48.03 22.81 44.97 22.40 C 43.56 20.72 42.34 18.70 40.30 17.73 C 33.88 16.11 25.97 19.15 23.85 25.79 C 22.11 31.78 22.36 38.17 20.48 44.14 C 19.49 42.95 18.62 41.67 17.54 40.57 C 16.03 40.24 14.47 40.39 12.94 40.37 C 11.69 43.54 8.76 44.94 5.44 44.63 C 6.82 35.10 8.27 25.58 9.76 16.06 Z" />
<path fill="#017ec6" opacity="1.00" d=" M 71.15 13.04 C 133.77 13.08 196.38 13.06 259.00 13.11 C 270.03 12.94 281.07 13.41 292.09 12.85 C 291.34 18.67 290.51 24.48 289.48 30.26 C 287.13 30.25 284.79 30.24 282.45 30.23 C 282.78 29.07 283.13 27.91 283.49 26.76 C 285.13 26.59 287.25 27.03 287.72 24.85 C 284.70 24.96 281.37 24.07 278.55 25.48 C 277.91 27.02 277.52 28.64 277.07 30.25 C 275.12 30.25 273.16 30.25 271.21 30.28 C 273.27 28.77 275.36 27.14 275.75 24.41 C 274.43 24.87 273.12 25.34 271.82 25.83 C 270.86 25.36 269.91 24.88 268.97 24.41 C 268.43 24.77 267.36 25.49 266.82 25.85 C 266.44 27.66 266.10 29.59 264.29 30.53 C 264.37 28.85 264.48 27.17 264.62 25.49 C 262.95 24.92 261.27 24.87 259.64 25.57 C 259.54 26.79 259.43 28.00 259.33 29.22 C 258.67 29.58 257.37 30.31 256.71 30.67 C 256.64 28.42 256.61 26.16 256.28 23.92 C 253.81 25.30 253.56 28.19 252.51 30.52 C 251.52 28.28 250.61 25.36 247.83 24.83 C 243.93 23.94 241.15 27.36 239.12 30.13 C 238.75 30.20 238.01 30.36 237.64 30.44 C 237.31 28.69 236.95 26.95 236.54 25.22 C 237.98 26.31 239.69 28.95 241.50 26.20 C 239.23 24.88 237.02 21.22 234.02 23.01 C 232.09 24.87 232.04 27.82 231.23 30.24 C 226.51 30.22 221.79 30.27 217.07 30.22 C 218.64 27.78 221.34 27.17 224.10 27.50 C 224.49 25.71 224.87 23.93 225.23 22.14 C 222.48 22.32 219.82 23.07 217.57 24.69 C 217.58 24.21 217.62 23.25 217.63 22.77 C 215.97 22.75 214.31 22.73 212.65 22.70 C 212.11 23.62 211.58 24.55 211.06 25.47 C 206.22 20.90 198.96 22.28 193.18 23.92 C 193.81 21.49 194.44 19.06 195.03 16.62 C 191.69 16.54 188.35 16.54 185.02 16.58 C 182.38 20.81 180.16 25.33 177.25 29.38 C 176.60 29.71 175.31 30.38 174.67 30.72 C 173.69 26.03 173.27 21.26 172.56 16.52 C 169.22 16.56 165.88 16.56 162.55 16.55 C 161.73 20.00 160.93 23.45 160.25 26.94 C 158.23 24.93 155.96 22.76 152.95 22.59 C 147.87 22.32 142.80 23.04 137.71 22.77 C 136.17 25.26 134.67 27.76 133.15 30.26 C 132.03 30.25 130.92 30.23 129.80 30.21 C 129.53 27.86 129.41 25.47 128.85 23.16 C 125.90 21.91 122.81 24.03 119.82 23.05 C 115.38 21.89 110.56 22.29 106.67 24.82 C 106.63 24.29 106.57 23.22 106.54 22.69 C 104.67 22.78 102.78 22.71 100.94 23.05 C 99.21 25.09 99.69 28.15 98.42 30.47 C 98.50 25.70 100.61 21.28 100.97 16.53 C 98.77 16.55 96.55 16.41 94.38 16.80 C 93.21 21.06 92.48 25.43 91.49 29.73 C 90.93 29.76 89.80 29.83 89.23 29.86 C 87.22 25.40 84.86 21.10 82.93 16.60 C 80.62 16.57 78.31 16.55 76.00 16.56 C 74.96 21.16 74.02 25.80 72.67 30.33 C 71.29 30.29 69.91 30.25 68.53 30.22 C 69.19 24.46 70.25 18.76 71.15 13.04 M 101.67 16.52 C 101.57 17.60 101.38 19.76 101.28 20.84 C 103.32 20.81 105.37 20.80 107.42 20.78 C 107.84 19.41 108.27 18.03 108.69 16.66 C 106.35 16.58 104.01 16.55 101.67 16.52 Z" />
<path fill="#017ec6" opacity="1.00" d=" M 166.19 30.31 C 166.48 27.82 166.91 25.35 167.45 22.90 C 167.91 25.33 168.33 27.78 168.61 30.25 C 168.00 30.26 166.79 30.30 166.19 30.31 Z" />
<path fill="#017ec6" opacity="1.00" d=" M 183.13 30.40 C 183.98 27.99 185.23 25.73 186.81 23.72 C 186.53 25.95 185.97 28.13 185.27 30.26 C 184.74 30.30 183.66 30.37 183.13 30.40 Z" />
<path fill="#017ec6" opacity="1.00" d=" M 79.51 30.19 C 79.94 28.32 80.39 26.47 80.88 24.62 C 81.64 26.50 82.36 28.40 83.00 30.33 C 81.84 30.28 80.68 30.23 79.51 30.19 Z" />
<path fill="#017ec6" opacity="1.00" d=" M 112.61 26.43 C 114.52 26.51 116.44 26.58 118.35 26.69 C 118.53 27.78 118.68 28.86 118.80 29.96 C 115.88 30.47 112.91 30.25 109.98 30.19 C 110.68 28.83 111.62 27.60 112.61 26.43 Z" />
<path fill="#017ec6" opacity="1.00" d=" M 144.82 30.22 C 145.62 27.59 148.13 25.83 150.91 26.47 C 153.10 26.31 153.75 28.57 154.01 30.31 C 150.95 30.25 147.88 30.25 144.82 30.22 Z" />
<path fill="#017ec6" opacity="1.00" d=" M 199.67 26.51 C 201.29 26.49 202.92 26.51 204.55 26.55 C 204.48 27.44 204.42 28.32 204.35 29.21 C 200.30 29.45 196.27 29.92 192.25 30.42 C 192.33 29.55 192.41 28.68 192.50 27.80 C 195.02 28.50 197.58 28.17 199.67 26.51 Z" />
<path fill="#017ec6" opacity="1.00" d=" M 243.75 29.74 C 244.62 28.15 245.78 26.77 247.60 26.22 C 247.55 27.22 247.45 29.22 247.40 30.22 C 246.48 30.10 244.66 29.86 243.75 29.74 Z" />
<path fill="#017ec6" opacity="1.00" d=" M 10.53 45.33 C 12.35 44.00 13.67 41.98 15.90 41.24 C 17.67 43.40 20.12 45.15 20.92 47.96 C 18.69 47.62 17.01 46.21 15.55 44.61 C 12.94 48.02 8.64 48.71 4.60 48.31 C 4.53 44.71 8.24 46.03 10.53 45.33 Z" />
<path fill="#017ec6" opacity="1.00" d=" M 41.46 45.95 C 43.61 44.38 45.60 42.58 47.90 41.21 C 49.81 43.90 52.17 47.28 55.97 46.70 C 58.62 46.99 60.37 44.89 61.95 43.13 C 61.47 44.83 61.99 47.25 60.04 48.08 C 55.65 50.78 50.16 48.69 47.05 45.04 C 45.44 46.87 43.34 48.04 40.96 48.55 C 41.09 47.90 41.34 46.60 41.46 45.95 Z" />
</g>
<g id="#4d4a7dff">
<path fill="#4d4a7d" opacity="1.00" d=" M 31.17 19.24 C 34.19 17.99 37.70 17.78 40.80 18.90 C 42.17 20.29 43.08 22.05 44.34 23.54 C 46.82 23.92 49.38 23.51 51.83 24.09 C 53.95 25.46 53.46 28.43 51.94 30.06 C 49.51 30.45 47.02 30.24 44.60 30.74 C 40.32 31.86 35.73 30.85 31.58 32.65 C 31.48 33.06 31.28 33.89 31.19 34.30 C 32.79 34.23 34.43 34.03 36.02 34.38 C 41.30 39.00 40.72 51.11 32.30 51.60 C 32.47 48.48 34.07 45.09 31.95 42.26 C 31.34 42.32 30.11 42.43 29.50 42.49 C 29.52 42.82 29.57 43.49 29.59 43.83 C 33.59 45.60 30.42 50.91 30.41 54.19 C 32.90 54.19 35.41 54.00 37.89 54.31 C 40.05 54.94 39.24 57.61 39.67 59.26 C 34.23 60.71 28.51 60.12 22.94 60.05 C 20.73 60.40 19.53 57.85 19.89 55.98 C 21.07 47.28 22.71 38.65 23.79 29.93 C 24.43 25.52 26.96 21.07 31.17 19.24 M 39.45 25.68 C 39.58 27.19 40.14 28.56 41.13 29.70 C 41.66 29.55 42.73 29.24 43.27 29.08 C 43.30 27.95 43.33 26.83 43.36 25.70 C 42.06 25.68 40.76 25.68 39.45 25.68 Z" />
<path fill="#4d4a7d" opacity="1.00" d=" M 95.39 41.33 C 96.26 38.17 96.66 34.82 98.31 31.93 C 97.83 35.08 97.05 38.17 96.40 41.29 C 98.40 41.31 100.40 41.32 102.41 41.36 C 102.85 40.22 103.30 39.08 103.74 37.94 C 109.53 43.73 120.25 42.71 125.17 36.25 C 125.27 37.79 125.38 39.34 125.49 40.88 C 127.78 41.18 130.08 41.33 132.38 41.46 C 134.10 39.05 135.74 36.58 137.28 34.04 C 138.18 37.08 139.99 40.06 143.19 41.04 C 147.63 42.14 152.59 41.88 156.58 39.47 C 156.91 40.10 157.25 40.74 157.58 41.37 C 159.50 41.33 161.41 41.31 163.33 41.30 C 164.09 38.32 164.79 35.32 165.55 32.34 C 166.42 32.43 168.17 32.61 169.04 32.70 C 169.32 35.47 169.51 38.27 170.15 40.98 C 172.12 41.45 174.17 41.30 176.18 41.39 C 177.95 38.56 179.68 35.70 181.20 32.72 C 182.10 32.65 183.91 32.50 184.81 32.42 C 184.09 35.38 183.41 38.35 182.82 41.33 C 185.34 41.12 188.59 42.19 190.10 39.46 C 193.52 42.29 197.93 41.46 201.88 40.56 C 205.89 41.30 209.99 41.64 214.07 41.16 C 215.11 38.37 215.58 35.41 216.27 32.52 C 221.09 32.56 225.91 32.56 230.73 32.53 C 230.46 34.35 230.13 36.18 230.25 38.02 C 232.90 39.56 236.27 38.58 239.15 38.33 C 238.07 37.52 236.97 36.74 235.84 36.02 C 236.08 34.82 236.33 33.63 236.58 32.43 C 237.37 32.52 238.16 32.60 238.95 32.68 C 238.63 36.20 241.52 40.14 245.33 38.94 C 249.12 38.40 250.72 34.66 252.55 31.80 C 252.92 34.05 251.46 37.58 254.21 38.68 C 257.00 40.32 261.28 38.98 262.37 35.85 C 263.18 34.49 263.25 32.29 265.30 32.12 C 264.87 34.29 264.48 36.46 264.33 38.67 C 265.77 38.66 267.24 38.82 268.67 38.48 C 269.91 36.78 270.10 34.58 270.68 32.61 C 272.73 32.56 274.79 32.54 276.84 32.51 C 276.61 33.72 276.37 34.93 276.14 36.14 C 274.38 36.67 271.00 35.48 271.01 38.38 C 274.13 38.48 277.25 38.47 280.38 38.48 C 281.05 36.57 281.61 34.61 282.07 32.63 C 284.48 32.56 286.89 32.53 289.31 32.51 C 288.28 37.85 287.81 43.28 286.66 48.60 C 255.43 48.87 224.18 48.63 192.94 48.72 C 150.48 48.62 108.00 48.89 65.54 48.58 C 66.52 43.26 67.34 37.92 68.10 32.57 C 69.53 32.56 70.95 32.55 72.38 32.54 C 71.67 35.45 70.99 38.37 70.39 41.31 C 72.61 41.30 74.83 41.29 77.05 41.27 C 77.68 38.35 78.33 35.44 78.94 32.52 C 80.70 32.51 82.47 32.47 84.24 32.61 C 86.33 35.16 87.29 38.42 88.79 41.32 C 90.99 41.30 93.19 41.31 95.39 41.33 Z" />
<path fill="#4d4a7d" opacity="1.00" d=" M 194.91 36.03 C 197.01 33.11 200.73 33.07 203.94 32.44 C 203.34 34.15 202.83 36.18 200.97 36.96 C 198.95 38.22 196.72 37.09 194.91 36.03 Z" />
<path fill="#4d4a7d" opacity="1.00" d=" M 243.52 32.56 C 244.63 32.54 245.75 32.51 246.88 32.49 C 246.66 33.78 246.45 35.07 246.24 36.36 C 245.24 36.48 244.25 36.60 243.26 36.72 C 243.33 35.33 243.42 33.95 243.52 32.56 Z" />
<path fill="#4d4a7d" opacity="1.00" d=" M 255.71 32.64 C 256.68 32.59 257.65 32.55 258.63 32.50 C 258.24 33.86 257.84 35.21 257.44 36.57 C 256.93 36.60 255.89 36.66 255.37 36.69 C 255.48 35.34 255.60 33.99 255.71 32.64 Z" />
<path fill="#4d4a7d" opacity="1.00" d=" M 109.00 33.71 C 114.00 33.75 119.02 33.39 124.00 33.86 L 125.09 35.52 C 123.03 35.62 120.97 35.57 118.92 35.76 C 116.54 36.20 114.42 38.13 111.88 37.38 C 110.09 37.14 109.80 34.96 109.00 33.71 Z" />
<path fill="#4d4a7d" opacity="1.00" d=" M 143.59 33.74 C 148.70 33.63 153.82 33.61 158.93 33.75 C 158.22 36.75 154.73 35.31 152.57 35.70 C 151.76 36.35 150.95 37.01 150.14 37.67 C 147.17 37.87 144.65 36.61 143.59 33.74 Z" />
<path fill="#4d4a7d" opacity="1.00" d=" M 274.99 62.33 C 278.01 60.93 280.50 58.61 283.56 57.24 C 283.67 57.77 283.88 58.84 283.99 59.37 C 284.78 60.83 284.86 62.40 284.55 64.03 C 283.61 63.12 282.68 62.20 281.76 61.28 C 279.35 63.44 276.40 65.50 272.98 65.12 C 270.10 65.17 267.82 63.27 265.85 61.40 C 261.90 66.03 254.03 66.58 250.36 61.32 C 246.23 65.88 238.40 66.65 234.49 61.39 C 232.13 63.47 229.29 65.41 225.98 65.12 C 223.02 65.21 220.76 63.08 218.69 61.27 C 216.64 63.36 214.07 65.29 210.98 65.13 C 207.81 65.36 205.20 63.40 203.00 61.38 C 200.82 63.39 198.20 65.31 195.07 65.14 C 191.94 65.37 189.40 63.34 187.16 61.44 C 183.25 66.24 175.57 66.26 171.70 61.38 C 169.48 63.22 167.06 65.22 164.00 65.13 C 160.83 65.43 158.17 63.50 156.03 61.41 C 153.77 63.38 151.11 65.28 147.95 65.14 C 144.87 65.36 142.36 63.39 140.29 61.37 C 138.03 63.47 135.27 65.46 132.01 65.13 C 129.07 65.22 126.74 63.29 124.70 61.44 C 122.53 63.33 120.06 65.24 117.01 65.13 C 113.82 65.43 111.14 63.45 109.02 61.31 C 106.56 63.62 103.46 65.67 99.92 65.09 C 97.15 65.07 95.09 63.13 93.25 61.31 C 90.98 63.39 88.25 65.40 84.98 65.14 C 81.97 65.29 79.58 63.28 77.51 61.38 C 74.04 65.50 67.97 66.22 63.52 63.26 C 63.60 62.47 63.78 60.87 63.86 60.07 C 66.04 61.32 68.40 63.00 71.05 62.27 C 73.29 61.89 74.69 59.95 76.20 58.46 C 76.86 58.46 78.19 58.46 78.86 58.46 C 80.62 60.62 82.95 62.91 86.02 62.39 C 89.35 62.42 90.74 57.69 94.13 58.46 C 96.20 60.05 98.02 62.54 100.92 62.40 C 104.65 62.68 106.47 58.48 110.01 58.03 C 111.79 60.14 113.85 62.78 116.98 62.41 C 119.68 62.52 121.58 60.44 123.14 58.54 C 123.85 58.51 125.28 58.44 125.99 58.40 C 127.56 60.23 129.30 62.45 131.99 62.39 C 135.07 62.88 137.26 60.31 138.98 58.17 C 142.65 58.16 144.22 62.77 148.04 62.41 C 151.82 62.75 153.47 58.20 157.14 58.09 C 158.81 60.26 160.88 62.81 163.97 62.41 C 167.62 62.50 169.23 58.06 172.92 58.18 C 174.49 60.06 176.16 62.47 178.92 62.40 C 182.13 62.81 184.41 60.23 186.31 58.08 C 189.71 58.57 191.41 62.65 195.03 62.41 C 198.02 62.72 200.02 60.21 201.89 58.30 C 202.57 58.38 203.93 58.52 204.61 58.59 C 206.22 60.49 208.16 62.71 210.94 62.41 C 214.93 62.78 216.54 57.10 220.66 58.61 C 220.86 58.94 221.28 59.61 221.49 59.94 C 222.71 61.17 224.15 62.44 226.00 62.41 C 229.07 62.82 231.21 60.24 233.27 58.42 C 233.87 58.47 235.07 58.57 235.68 58.63 C 237.43 60.33 239.29 62.48 241.99 62.41 C 245.23 62.48 247.28 59.49 250.03 58.23 C 252.96 59.07 254.66 62.66 257.97 62.43 C 260.70 62.53 262.57 60.32 264.43 58.67 C 265.04 58.59 266.27 58.44 266.89 58.37 C 268.98 60.60 271.60 63.17 274.99 62.33 Z" />
<path fill="#4d4a7d" opacity="1.00" d=" M 236.90 69.20 C 239.77 68.23 237.84 72.90 238.68 74.50 C 239.28 74.89 240.46 75.68 241.06 76.07 C 239.60 76.01 238.15 75.96 236.71 75.90 C 236.75 73.67 236.70 71.43 236.90 69.20 Z" />
<path fill="#4d4a7d" opacity="1.00" d=" M 258.59 69.52 C 260.21 69.19 261.98 68.60 263.56 69.45 C 263.39 71.49 265.10 74.54 262.94 75.84 C 261.47 76.14 259.96 75.88 258.49 75.76 C 260.07 75.20 261.66 74.66 263.25 74.12 C 262.72 73.71 261.66 72.87 261.12 72.45 C 261.51 71.90 262.27 70.81 262.65 70.26 C 261.64 70.07 259.60 69.71 258.59 69.52 Z" />
<path fill="#4d4a7d" opacity="1.00" d=" M 266.11 68.94 C 267.65 68.98 269.20 69.06 270.74 69.18 C 269.37 69.67 267.99 70.10 266.59 70.47 C 267.93 71.59 270.76 72.12 270.33 74.38 C 269.32 76.76 266.59 75.85 264.60 75.67 C 265.54 75.40 267.41 74.86 268.35 74.59 C 269.87 72.66 266.76 72.52 265.59 72.14 C 265.72 71.34 265.98 69.74 266.11 68.94 Z" />
<path fill="#4d4a7d" opacity="1.00" d=" M 271.65 69.01 C 272.51 68.99 274.24 68.96 275.10 68.94 C 276.07 69.75 277.04 70.58 277.99 71.42 C 277.43 68.45 281.70 68.21 282.46 70.45 C 283.31 72.50 282.86 76.24 279.95 76.07 C 277.61 76.11 277.75 73.08 277.35 71.56 C 276.92 71.74 276.06 72.11 275.63 72.30 C 274.97 73.11 274.31 73.91 273.65 74.71 C 274.94 75.03 276.23 75.37 277.51 75.75 C 275.43 75.96 273.34 76.01 271.25 76.07 C 272.62 74.44 274.00 72.82 275.07 70.98 C 274.25 70.65 272.60 69.99 271.78 69.66 L 271.65 69.01 M 279.39 70.36 C 278.56 72.27 278.86 74.78 281.09 75.53 C 280.71 73.93 282.51 68.86 279.39 70.36 Z" />
<path fill="#4d4a7d" opacity="1.00" d=" M 241.28 72.17 C 241.78 69.07 245.96 69.46 246.92 72.10 C 246.30 72.43 245.08 73.10 244.47 73.43 C 244.55 72.75 244.72 71.39 244.81 70.71 C 244.22 70.97 243.05 71.50 242.46 71.76 C 242.82 72.81 243.20 73.86 243.55 74.92 C 244.37 75.04 246.00 75.28 246.82 75.40 C 244.36 77.01 240.35 75.53 241.28 72.17 Z" />
<path fill="#4d4a7d" opacity="1.00" d=" M 247.17 72.98 C 247.06 70.38 249.89 69.48 252.02 70.03 C 252.78 72.44 252.66 75.07 252.24 77.53 C 251.63 79.41 249.19 78.87 247.70 79.17 C 247.75 78.69 247.84 77.74 247.89 77.26 C 248.45 77.50 249.56 77.98 250.11 78.22 C 250.37 77.78 250.87 76.88 251.12 76.44 C 249.31 76.09 246.82 75.36 247.17 72.98 M 250.91 75.41 C 250.91 73.77 250.89 72.13 250.84 70.49 C 248.27 71.21 247.92 75.08 250.91 75.41 Z" />
<path fill="#4d4a7d" opacity="1.00" d=" M 253.80 74.15 C 255.40 73.65 255.94 74.21 255.41 75.85 C 253.80 76.36 253.26 75.79 253.80 74.15 Z" />
</g>
<g id="#f68b20ff">
<path fill="#f68b20" opacity="1.00" d=" M 4.66 49.38 C 8.60 49.95 12.50 48.99 15.67 46.58 C 16.97 47.53 18.35 48.38 19.57 49.43 C 20.10 53.06 18.31 56.76 19.70 60.33 C 26.46 61.34 33.30 60.62 40.10 60.86 C 42.47 60.77 44.99 61.17 47.23 60.21 C 49.09 58.71 49.10 55.80 48.13 53.79 C 46.31 51.29 42.72 52.62 40.13 52.16 C 40.25 48.43 44.93 49.08 47.24 47.27 C 51.00 51.01 56.59 51.21 61.24 49.16 C 60.44 53.06 60.05 57.02 59.32 60.94 C 58.68 65.73 53.67 68.93 49.05 68.58 C 40.72 68.49 32.39 68.69 24.07 68.49 C 21.22 68.53 19.58 65.96 18.31 63.80 C 15.85 67.73 10.56 69.59 6.29 67.58 C 3.83 66.53 2.94 63.53 3.04 61.06 C 3.34 57.14 4.15 53.28 4.66 49.38 Z" />
<path fill="#f68b20" opacity="1.00" d=" M 65.54 50.31 C 69.22 50.29 72.90 50.24 76.58 50.34 C 78.16 52.02 80.03 52.09 81.66 50.40 C 86.09 50.68 91.40 48.87 95.01 52.27 C 95.77 51.60 96.52 50.93 97.28 50.25 C 100.89 50.33 104.51 50.33 108.13 50.21 C 108.80 50.92 109.47 51.63 110.15 52.34 C 111.13 51.65 112.12 50.96 113.10 50.27 C 116.68 50.32 120.25 50.32 123.83 50.26 C 124.54 50.92 125.25 51.58 125.96 52.24 C 129.69 48.99 134.91 50.64 139.39 50.35 C 141.03 52.15 142.89 52.04 144.57 50.38 C 148.24 50.27 151.91 50.31 155.59 50.29 C 155.91 50.78 156.56 51.77 156.89 52.26 C 160.82 49.08 166.10 50.59 170.73 50.35 C 172.27 52.10 174.03 52.05 175.65 50.40 C 179.92 50.46 184.53 49.43 188.46 51.60 C 189.56 52.14 190.50 50.70 191.49 50.37 C 195.78 50.41 200.37 49.45 204.32 51.62 C 208.48 49.67 213.12 50.34 217.58 50.35 C 219.20 52.08 221.02 52.13 222.68 50.39 C 226.30 50.27 229.93 50.30 233.56 50.30 C 234.32 50.98 235.08 51.66 235.85 52.34 C 236.68 51.64 237.51 50.95 238.34 50.25 C 242.66 50.53 247.31 49.39 251.28 51.61 C 252.39 52.12 253.33 50.66 254.34 50.33 C 258.55 50.74 263.57 48.90 267.05 52.00 C 270.98 49.12 276.07 50.67 280.58 50.27 C 281.28 50.94 282.00 51.61 282.72 52.28 C 283.99 51.47 285.28 50.67 286.58 49.89 C 286.23 53.16 286.20 56.71 283.99 59.37 C 283.88 58.84 283.67 57.77 283.56 57.24 C 280.60 57.08 277.58 57.15 274.69 57.83 C 274.58 58.61 274.36 60.16 274.25 60.94 C 273.70 60.92 272.60 60.87 272.05 60.85 C 272.13 59.40 272.21 57.96 272.29 56.52 C 270.78 57.23 269.28 57.97 267.79 58.72 C 267.44 58.11 266.75 56.91 266.40 56.30 C 265.26 56.75 264.13 57.20 263.00 57.65 C 261.52 57.56 260.04 57.49 258.55 57.44 C 258.61 58.31 258.71 60.04 258.76 60.91 C 258.15 60.92 256.94 60.94 256.34 60.95 C 256.41 59.47 256.47 58.00 256.53 56.52 C 255.32 57.10 254.12 57.69 252.93 58.28 C 250.21 56.03 246.67 57.36 243.57 57.68 C 243.33 58.69 243.22 59.72 243.08 60.74 C 242.19 60.84 241.31 60.94 240.43 61.04 C 240.60 59.56 240.75 58.07 240.91 56.58 C 239.49 57.30 238.08 58.03 236.69 58.79 C 236.32 58.24 235.58 57.15 235.20 56.60 C 234.75 56.60 233.84 56.59 233.39 56.59 C 233.02 56.88 232.27 57.46 231.90 57.75 C 230.87 57.56 229.84 57.41 228.80 57.29 C 227.23 57.76 227.56 59.73 227.06 60.94 C 225.20 60.61 223.34 60.27 221.49 59.94 C 221.28 59.61 220.86 58.94 220.66 58.61 C 220.18 57.81 219.70 57.02 219.24 56.22 C 218.03 56.80 216.83 57.42 215.66 58.08 C 214.37 57.14 212.87 57.25 211.41 57.65 C 211.51 58.45 211.72 60.05 211.82 60.85 C 211.18 60.86 209.91 60.89 209.27 60.90 C 209.17 59.62 210.46 56.76 208.09 57.13 C 207.42 57.53 206.08 58.33 205.42 58.73 C 204.81 57.97 204.21 57.22 203.61 56.48 C 203.13 56.51 202.15 56.59 201.66 56.63 C 201.30 57.08 200.58 57.99 200.22 58.44 C 198.98 57.75 197.67 57.24 196.30 56.91 C 196.30 58.22 196.30 59.53 196.32 60.85 C 195.58 60.84 194.10 60.82 193.36 60.81 C 193.55 59.53 193.74 58.24 193.91 56.95 C 192.36 57.17 190.94 57.74 189.84 58.89 C 188.67 56.69 186.55 55.95 184.61 57.68 C 183.30 57.66 181.79 56.76 180.63 57.62 C 180.54 58.48 180.37 60.20 180.28 61.06 C 177.00 60.85 173.99 59.48 172.17 56.66 C 171.76 56.64 170.94 56.58 170.53 56.55 C 170.17 56.88 169.45 57.55 169.09 57.88 C 167.61 57.47 166.09 57.29 164.56 57.48 C 164.61 58.32 164.71 60.01 164.76 60.85 C 164.12 60.87 162.84 60.90 162.20 60.92 C 162.42 59.59 162.64 58.26 162.84 56.92 C 161.43 57.25 160.04 57.67 158.71 58.24 C 157.45 57.52 156.16 56.84 154.85 56.24 C 154.45 56.76 153.67 57.80 153.27 58.32 C 152.06 57.64 150.81 56.65 149.38 57.42 C 149.11 58.51 149.31 59.65 149.34 60.76 C 148.66 60.82 147.30 60.94 146.62 61.00 C 146.71 59.70 146.77 58.41 146.79 57.12 C 145.12 56.78 143.93 57.98 142.72 58.89 C 142.32 58.25 141.53 56.96 141.13 56.32 C 139.93 56.81 138.73 57.31 137.54 57.81 C 136.26 57.51 134.86 56.81 133.63 57.68 C 133.33 58.80 133.46 59.96 133.44 61.10 C 130.16 60.76 126.98 59.54 125.15 56.63 C 124.76 56.63 123.97 56.62 123.57 56.62 C 123.19 56.91 122.43 57.51 122.04 57.81 C 120.52 57.53 118.97 57.40 117.43 57.48 C 117.53 58.32 117.72 60.00 117.82 60.84 C 117.19 60.86 115.93 60.89 115.30 60.91 C 115.17 59.69 116.09 58.03 115.03 57.10 C 113.86 57.36 112.73 57.74 111.58 58.02 C 110.29 57.49 109.05 56.87 107.81 56.25 C 107.49 56.79 106.84 57.87 106.52 58.41 C 105.21 57.86 103.89 57.36 102.54 56.92 C 102.28 58.21 102.02 59.50 101.77 60.80 C 101.16 60.83 99.94 60.88 99.32 60.91 C 99.55 59.56 99.77 58.21 99.96 56.85 C 98.34 57.13 96.90 57.83 95.79 59.07 C 95.36 58.37 94.49 56.98 94.05 56.28 C 92.78 56.70 91.59 57.33 90.52 58.12 C 89.29 57.66 87.40 56.14 86.57 58.03 C 86.54 58.71 86.49 60.09 86.46 60.78 C 85.35 60.80 84.25 60.83 83.15 60.86 C 83.73 59.76 84.31 58.66 84.89 57.55 C 83.06 56.98 81.37 57.38 80.00 58.71 C 79.65 58.17 78.94 57.09 78.59 56.55 C 78.06 56.55 77.01 56.57 76.49 56.58 C 75.91 57.20 75.34 57.82 74.77 58.44 C 73.79 57.25 72.63 56.88 71.26 57.35 C 70.80 58.47 70.52 59.64 70.44 60.87 C 69.92 60.87 68.88 60.89 68.36 60.89 C 68.37 59.59 68.86 58.16 68.05 56.99 C 66.39 57.00 65.18 58.19 63.91 59.09 C 64.63 56.19 65.10 53.25 65.54 50.31 M 67.94 55.25 C 69.13 55.56 70.34 55.73 71.57 55.76 C 72.77 54.42 71.74 53.08 71.07 51.80 C 70.00 52.93 68.95 54.08 67.94 55.25 M 86.16 51.76 C 85.37 53.07 84.63 54.41 83.98 55.79 C 85.51 55.62 87.03 55.41 88.55 55.14 C 87.78 54.00 86.98 52.87 86.16 51.76 M 101.58 52.59 C 100.27 53.11 99.72 54.46 100.29 55.75 C 101.38 56.04 102.39 55.89 103.33 55.29 C 104.42 54.24 102.93 51.76 101.58 52.59 M 115.59 53.41 C 115.60 54.01 115.61 55.20 115.61 55.80 C 117.96 56.13 119.84 55.00 119.56 52.45 C 118.23 52.74 116.91 53.07 115.59 53.41 M 130.60 54.19 C 131.93 55.91 134.58 56.74 135.32 53.99 C 134.19 51.36 132.21 53.20 130.60 54.19 M 148.56 52.62 C 146.59 53.01 146.44 56.57 148.88 55.87 C 151.50 55.96 150.96 51.71 148.56 52.62 M 162.82 54.93 C 162.90 56.71 165.30 55.21 166.37 55.50 C 166.30 54.47 166.22 53.45 166.14 52.42 C 164.84 52.64 161.93 52.99 162.82 54.93 M 178.51 52.83 C 178.77 53.78 178.09 56.48 179.88 55.83 C 182.01 56.10 181.55 53.92 181.79 52.51 C 180.69 52.61 179.60 52.72 178.51 52.83 M 194.52 52.35 C 194.40 53.51 194.31 54.67 194.28 55.84 C 195.55 55.87 198.22 55.96 197.47 53.98 C 197.70 52.24 195.56 52.76 194.52 52.35 M 209.01 55.05 C 210.73 55.99 212.53 55.90 213.86 54.32 C 213.35 53.76 212.33 52.65 211.82 52.09 C 210.87 53.06 209.93 54.05 209.01 55.05 M 227.19 52.51 C 226.00 52.95 224.86 54.15 225.50 55.49 C 226.53 55.93 227.57 55.92 228.60 55.48 C 229.48 54.38 228.85 51.95 227.19 52.51 M 241.60 52.33 C 241.48 53.62 240.85 55.09 241.97 56.14 C 243.11 55.95 244.09 55.46 244.93 54.67 C 244.84 52.79 243.07 52.58 241.60 52.33 M 258.42 52.47 C 257.99 52.79 257.14 53.43 256.71 53.75 C 256.68 54.24 256.62 55.22 256.58 55.71 C 258.74 56.17 260.70 55.27 260.59 52.87 C 260.04 52.77 258.96 52.57 258.42 52.47 M 271.97 55.60 C 273.28 55.65 274.59 55.69 275.91 55.71 C 275.64 54.52 275.93 52.95 274.57 52.37 C 272.85 52.54 272.49 54.26 271.97 55.60 Z" />
</g>
</svg>
